<?xml version="1.0" standalone="no"?>
<!DOCTYPE svg PUBLIC "-//W3C//DTD SVG 20010904//EN"
 "http://www.w3.org/TR/2001/REC-SVG-20010904/DTD/svg10.dtd">
<svg version="1.0" xmlns="http://www.w3.org/2000/svg"
 width="686.000000pt" height="405.000000pt" viewBox="0 0 686.000000 405.000000"
 preserveAspectRatio="xMidYMid meet">

<g transform="translate(0.000000,405.000000) scale(0.100000,-0.100000)"
fill="#000000" stroke="none">
<path d="M2805 2820 c-66 -4 -132 -8 -147 -9 -25 -1 -28 -5 -28 -35 0 -30 4
-36 34 -46 18 -6 44 -22 57 -36 l24 -26 3 -629 c3 -710 5 -683 -69 -713 -35
-14 -39 -19 -39 -51 l0 -35 270 0 270 0 0 35 c0 29 -5 36 -35 51 -73 34 -70
-3 -73 792 l-3 712 -72 -2 c-40 -1 -126 -5 -192 -8z"/>
<path d="M3535 2820 c-66 -4 -132 -8 -147 -9 -25 -1 -28 -5 -28 -35 0 -31 4
-35 42 -48 32 -10 46 -22 62 -53 21 -39 21 -51 21 -645 0 -687 2 -667 -71
-703 -39 -18 -44 -25 -44 -54 l0 -33 275 0 275 0 0 35 c0 32 -4 37 -39 51 -28
11 -45 27 -58 52 -17 35 -18 83 -21 745 l-3 707 -72 -2 c-40 -1 -126 -5 -192
-8z"/>
<path d="M4265 2819 c-71 -3 -140 -7 -152 -8 -19 -1 -23 -7 -23 -35 0 -31 4
-35 42 -48 30 -9 48 -23 63 -48 20 -34 20 -49 20 -655 0 -580 -1 -622 -18
-653 -11 -19 -33 -40 -53 -48 -29 -12 -34 -19 -34 -49 l0 -35 270 0 270 0 0
35 c0 30 -5 37 -32 48 -18 8 -42 24 -53 37 -20 22 -20 38 -23 746 l-2 724 -73
-2 c-39 -1 -130 -5 -202 -9z"/>
<path d="M1021 2756 c-155 -30 -261 -89 -327 -182 -46 -64 -65 -132 -65 -229
0 -120 31 -195 118 -287 60 -62 123 -105 277 -189 113 -62 187 -123 219 -183
27 -52 30 -174 4 -222 -42 -81 -136 -122 -249 -110 -115 12 -192 78 -228 195
l-18 56 -76 3 -76 3 0 -170 0 -169 63 -11 c221 -38 477 -45 582 -17 134 37
234 107 290 201 53 92 69 227 39 340 -37 146 -126 232 -383 373 -116 63 -200
133 -226 188 -21 45 -22 137 -2 186 28 67 107 108 212 108 118 0 204 -70 236
-192 l13 -48 78 0 78 0 0 159 c0 183 14 162 -121 187 -122 22 -347 27 -438 10z"/>
<path d="M4870 2717 c0 -30 5 -36 41 -52 72 -33 69 -5 69 -673 l0 -599 -22
-28 c-12 -15 -36 -34 -55 -41 -28 -12 -33 -19 -33 -49 l0 -35 291 0 290 0 -3
37 c-3 32 -7 38 -34 45 -16 4 -41 19 -55 34 -24 26 -24 26 -27 275 l-3 249 43
0 c126 -1 167 -37 253 -227 79 -175 141 -298 181 -360 l34 -53 210 0 210 0 0
34 c0 31 -5 36 -46 56 -60 30 -92 75 -179 255 -88 181 -136 249 -216 300 -32
22 -59 41 -59 44 0 3 33 21 72 40 89 44 170 120 206 198 25 53 27 68 27 178 0
111 -2 124 -28 177 -50 103 -133 165 -272 204 -51 15 -122 18 -477 22 l-418 4
0 -35z m745 -132 c91 -57 134 -182 114 -336 -11 -92 -41 -153 -92 -190 -52
-38 -91 -48 -209 -56 l-98 -6 0 313 0 312 118 -3 c111 -4 122 -6 167 -34z"/>
<path d="M1931 2533 c-6 -49 -16 -106 -22 -128 -16 -56 -75 -113 -127 -121
-41 -6 -42 -8 -42 -45 l0 -39 70 0 70 0 0 -312 c0 -172 5 -347 10 -388 22
-164 103 -250 258 -269 89 -11 169 1 247 37 70 33 154 91 154 107 1 6 -15 28
-33 50 -32 38 -35 39 -53 23 -46 -42 -136 -60 -186 -37 -64 29 -77 111 -77
492 l0 297 160 0 160 0 0 70 0 70 -160 0 -160 0 0 140 0 140 -129 0 -128 0
-12 -87z"/>
</g>
</svg>
